{
  "accessors": [
    {
      "bufferView": 2,
      "componentType": 5126,
      "count": 116,
      "max": [
        0.11593242734670639,
        0.79046618938446045,
        0.77773439884185791
      ],
      "min": [
        -0.11593242734670639,
        -0.19406378269195557,
        -2.3171103000640869
      ],
      "type": "VEC3"
    },
    {
      "bufferView": 2,
      "byteOffset": 1392,
      "componentType": 5126,
      "count": 116,
      "max": [
        0.99999511241912842,
        1,
        1
      ],
      "min": [
        -0.99999511241912842,
        -1,
        -1
      ],
      "type": "VEC3"
    },
    {
      "bufferView": 3,
      "componentType": 5126,
      "count": 116,
      "max": [
        1,
        0,
        1,
        1
      ],
      "min": [
        -0.67677104473114014,
        -0.99999505281448364,
        -1,
        -1
      ],
      "type": "VEC4"
    },
    {
      "bufferView": 1,
      "componentType": 5126,
      "count": 116,
      "max": [
        0.96899223327636719,
        0.96149545907974243
      ],
      "min": [
        0.059039592742919922,
        0.048356205224990845
      ],
      "type": "VEC2"
    },
    {
      "bufferView": 0,
      "componentType": 5125,
      "count": 312,
      "max": [
        115
      ],
      "min": [
        0
      ],
      "type": "SCALAR"
    },
    {
      "bufferView": 2,
      "byteOffset": 2784,
      "componentType": 5126,
      "count": 4019,
      "max": [
        2.1123154163360596,
        3.1030395030975342,
        2.2938563823699951
      ],
      "min": [
        -2.3073527812957764,
        -3.7442162036895752,
        -2.2812163829803467
      ],
      "type": "VEC3"
    },
    {
      "bufferView": 2,
      "byteOffset": 51012,
      "componentType": 5126,
      "count": 4019,
      "max": [
        1,
        1,
        0.99998664855957031
      ],
      "min": [
        -1,
        -1,
        -0.99979114532470703
      ],
      "type": "VEC3"
    },
    {
      "bufferView": 3,
      "byteOffset": 1856,
      "componentType": 5126,
      "count": 4019,
      "max": [
        1,
        1,
        1,
        1
      ],
      "min": [
        -1,
        -0.99976527690887451,
        -1,
        -1
      ],
      "type": "VEC4"
    },
    {
      "bufferView": 1,
      "byteOffset": 928,
      "componentType": 5126,
      "count": 4019,
      "max": [
        0.98011451959609985,
        0.97409117221832275
      ],
      "min": [
        0.11980705708265305,
        0.017198801040649414
      ],
      "type": "VEC2"
    },
    {
      "bufferView": 0,
      "byteOffset": 1248,
      "componentType": 5125,
      "count": 17718,
      "max": [
        4018
      ],
      "min": [
        0
      ],
      "type": "SCALAR"
    }
  ],
  "asset": {
    "extras": {
      "author": "nissato (https://sketchfab.com/Nissato)",
      "license": "CC-BY-4.0 (http://creativecommons.org/licenses/by/4.0/)",
      "source": "https://sketchfab.com/models/77f6d43d4dc740dfb8a500743676a18c",
      "title": "Ice Bear (We Bare Bears)"
    },
    "generator": "Sketchfab-3.20.7",
    "version": "2.0"
  },
  "bufferViews": [
    {
      "buffer": 0,
      "byteLength": 72120,
      "byteOffset": 0,
      "name": "floatBufferViews",
      "target": 34963
    },
    {
      "buffer": 0,
      "byteLength": 33080,
      "byteOffset": 72120,
      "byteStride": 8,
      "name": "floatBufferViews",
      "target": 34962
    },
    {
      "buffer": 0,
      "byteLength": 99240,
      "byteOffset": 105200,
      "byteStride": 12,
      "name": "floatBufferViews",
      "target": 34962
    },
    {
      "buffer": 0,
      "byteLength": 66160,
      "byteOffset": 204440,
      "byteStride": 16,
      "name": "floatBufferViews",
      "target": 34962
    }
  ],
  "buffers": [
    {
      "byteLength": 270600,
      "uri": "scene.bin"
    }
  ],
  "images": [
    {
      "uri": "textures/lambert4_baseColor.jpg"
    },
    {
      "uri": "textures/lambert1_baseColor.jpg"
    }
  ],
  "materials": [
    {
      "doubleSided": true,
      "emissiveFactor": [
        0,
        0,
        0
      ],
      "name": "lambert4",
      "pbrMetallicRoughness": {
        "baseColorFactor": [
          1,
          1,
          1,
          1
        ],
        "baseColorTexture": {
          "index": 0,
          "texCoord": 0
        },
        "metallicFactor": 0,
        "roughnessFactor": 0.59999999999999998
      }
    },
    {
      "doubleSided": true,
      "emissiveFactor": [
        0,
        0,
        0
      ],
      "name": "lambert1",
      "pbrMetallicRoughness": {
        "baseColorFactor": [
          1,
          1,
          1,
          1
        ],
        "baseColorTexture": {
          "index": 1,
          "texCoord": 0
        },
        "metallicFactor": 0,
        "roughnessFactor": 0.59999999999999998
      }
    }
  ],
  "meshes": [
    {
      "name": "axe:pCube3_lambert4_0",
      "primitives": [
        {
          "attributes": {
            "NORMAL": 1,
            "POSITION": 0,
            "TANGENT": 2,
            "TEXCOORD_0": 3
          },
          "indices": 4,
          "material": 0,
          "mode": 4
        }
      ]
    },
    {
      "name": "polySurface10_lambert1_0",
      "primitives": [
        {
          "attributes": {
            "NORMAL": 6,
            "POSITION": 5,
            "TANGENT": 7,
            "TEXCOORD_0": 8
          },
          "indices": 9,
          "material": 1,
          "mode": 4
        }
      ]
    }
  ],
  "nodes": [
    {
      "children": [
        1
      ],
      "name": "RootNode (gltf orientation matrix)",
      "rotation": [
        -0.70710678118654746,
        -0,
        -0,
        0.70710678118654757
      ]
    },
    {
      "children": [
        2
      ],
      "name": "RootNode (model correction matrix)"
    },
    {
      "children": [
        3
      ],
      "matrix": [
        1,
        0,
        0,
        0,
        0,
        0,
        1,
        0,
        0,
        -1,
        0,
        0,
        0,
        0,
        0,
        1
      ],
      "name": "1796b73df72d48ceb39a1993670ea86e.fbx"
    },
    {
      "children": [
        4,
        6,
        8
      ],
      "name": "RootNode"
    },
    {
      "children": [
        5
      ],
      "matrix": [
        0,
        1,
        -3.3306690738754696e-16,
        0,
        -1.1102230246251565e-16,
        2.2204460492503131e-16,
        1,
        0,
        1,
        -1.1102230246251565e-16,
        0,
        0,
        2.2667965888977051,
        -1000.0999755859375,
        0.29762813448905945,
        1
      ],
      "name": "bottom"
    },
    {
      "name": ""
    },
    {
      "children": [
        7
      ],
      "matrix": [
        -0.31546754188265957,
        0.072868693120264436,
        1.9290213899218609,
        0,
        0.648380697740782,
        1.8450569591456571,
        0.03633768704757305,
        0,
        -1.8182507637865302,
        0.64529691636155795,
        -0.32172843971053522,
        0,
        -2.6866545677185059,
        1.1288566589355469,
        1.1625765562057495,
        1
      ],
      "name": "axe:pCube3"
    },
    {
      "mesh": 0,
      "name": "axe:pCube3_lambert4_0"
    },
    {
      "children": [
        9
      ],
      "name": "polySurface10"
    },
    {
      "mesh": 1,
      "name": "polySurface10_lambert1_0"
    }
  ],
  "samplers": [
    {
      "magFilter": 9729,
      "minFilter": 9987,
      "wrapS": 10497,
      "wrapT": 10497
    }
  ],
  "scene": 0,
  "scenes": [
    {
      "name": "OSG_Scene",
      "nodes": [
        0
      ]
    }
  ],
  "textures": [
    {
      "sampler": 0,
      "source": 0
    },
    {
      "sampler": 0,
      "source": 1
    }
  ]
}

